<?xml version="1.0" encoding="UTF-8"?>
<svg xmlns="http://www.w3.org/2000/svg" width="760" height="710" viewBox="0 0 760 710" role="img" aria-labelledby="cycloid-title cycloid-desc">
<title id="cycloid-title">Exact cycloid geometry of population EM</title>
<desc id="cycloid-desc">A blue cycloid branch with five numbered, exact population expectation-maximization estimates approaching the true parameter at coordinate (1, 0). The horizontal axis is the normalized component along the true parameter; the vertical axis is the normalized orthogonal component. The plot assumes noiseless symmetric two-component mixed linear regression with standard Gaussian covariates. The initial direction has varphi zero equal to 0.15 radians. Theta one is the first update, not the initial estimate. The curve is an exact update locus, not a continuous-time path. Equal scales are used on both axes. Source: Luo and Hashemi, ICML 2024, Propositions 4.3 and 4.4.</desc>
<metadata>{&quot;source&quot;: &quot;https://arxiv.org/html/2405.18237v2#S4&quot;, &quot;propositions&quot;: [&quot;4.3&quot;, &quot;4.4&quot;], &quot;normalization&quot;: &quot;theta / ||theta_star||&quot;, &quot;initial_varphi_radians&quot;: 0.15, &quot;iterates&quot;: [{&quot;iteration&quot;: 1, &quot;varphi_previous&quot;: 0.15, &quot;x&quot;: 0.18955996920251839, &quot;y&quot;: 0.6224029353045845}, {&quot;iteration&quot;: 2, &quot;varphi_previous&quot;: 0.29563638169442025, &quot;x&quot;: 0.3656396779977864, &quot;y&quot;: 0.5825809046973922}, {&quot;iteration&quot;: 3, &quot;varphi_previous&quot;: 0.5604814507456298, &quot;x&quot;: 0.6434578471824102, &quot;y&quot;: 0.4567159700781767}, {&quot;iteration&quot;: 4, &quot;varphi_previous&quot;: 0.9535341755170216, &quot;x&quot;: 0.9075204868203042, &quot;y&quot;: 0.21327710416581724}, {&quot;iteration&quot;: 5, &quot;varphi_previous&quot;: 1.33997414359781, &quot;x&quot;: 0.9948359244906059, &quot;y&quot;: 0.03332027365480529}], &quot;curve_is_locus_not_continuous_time_path&quot;: true}</metadata>
<rect width="760" height="710" fill="#ffffff"/>
<g font-family="Arial, Helvetica, sans-serif">
<text x="58.00" y="54.00" font-size="34" fill="#243447" text-anchor="start" font-weight="700">EM updates lie on a cycloid</text>
<text x="58.00" y="92.00" font-size="23" fill="#526477" text-anchor="start" >Noiseless population EM · Gaussian covariates</text>
<text x="58.00" y="122.00" font-size="23" fill="#526477" text-anchor="start" >Symmetric two-component mixed linear regression</text>
<path d="M110,160.96 V515 H668" fill="none" stroke="#a3b2c1" stroke-width="2"/>
<path d="M110,183.9577 H630 M370,183.9577 V515" fill="none" stroke="#e7edf3" stroke-width="1.5" stroke-dasharray="5 7"/>
<path d="M104,183.9577 h6 M110,515 v7 M370,515 v7 M630,515 v7" fill="none" stroke="#a3b2c1" stroke-width="2"/>
<text x="91.00" y="191.96" font-size="23" fill="#526477" text-anchor="end" >2/π</text>
<text x="110.00" y="551.00" font-size="23" fill="#526477" text-anchor="middle" >0</text>
<text x="370.00" y="551.00" font-size="23" fill="#526477" text-anchor="middle" >0.5</text>
<text x="630.00" y="551.00" font-size="23" fill="#526477" text-anchor="middle" >1</text>
<text x="370.00" y="590.00" font-size="23" fill="#243447" text-anchor="middle" >Component along the true parameter</text>
<text transform="translate(37 361) rotate(-90)" font-size="23" fill="#243447" text-anchor="middle">Orthogonal component</text>
<path d="M110.0000,183.9577 L112.8889,183.9640 L115.7776,183.9829 L118.6662,184.0144 L121.5544,184.0585 L124.4422,184.1153 L127.3294,184.1846 L130.2159,184.2664 L133.1017,184.3609 L135.9866,184.4680 L138.8706,184.5876 L141.7534,184.7197 L144.6350,184.8645 L147.5153,185.0217 L150.3942,185.1915 L153.2715,185.3738 L156.1472,185.5686 L159.0211,185.7758 L161.8932,185.9956 L164.7633,186.2277 L167.6313,186.4724 L170.4972,186.7294 L173.3607,186.9988 L176.2218,187.2806 L179.0804,187.5748 L181.9364,187.8812 L184.7897,188.2000 L187.6401,188.5311 L190.4876,188.8744 L193.3321,189.2300 L196.1734,189.5977 L199.0114,189.9776 L201.8460,190.3697 L204.6772,190.7739 L207.5048,191.1902 L210.3287,191.6185 L213.1488,192.0589 L215.9651,192.5112 L218.7773,192.9755 L221.5854,193.4518 L224.3893,193.9399 L227.1889,194.4398 L229.9841,194.9516 L232.7748,195.4751 L235.5609,196.0103 L238.3422,196.5573 L241.1187,197.1158 L243.8903,197.6860 L246.6568,198.2678 L249.4183,198.8610 L252.1745,199.4658 L254.9254,200.0819 L257.6708,200.7094 L260.4107,201.3483 L263.1450,201.9984 L265.8736,202.6598 L268.5964,203.3324 L271.3132,204.0160 L274.0240,204.7108 L276.7287,205.4166 L279.4272,206.1333 L282.1194,206.8610 L284.8052,207.5995 L287.4846,208.3489 L290.1573,209.1090 L292.8233,209.8797 L295.4826,210.6612 L298.1350,211.4531 L300.7805,212.2556 L303.4189,213.0686 L306.0501,213.8919 L308.6742,214.7255 L311.2909,215.5694 L313.9002,216.4236 L316.5020,217.2878 L319.0962,218.1621 L321.6828,219.0464 L324.2616,219.9407 L326.8325,220.8448 L329.3955,221.7587 L331.9505,222.6823 L334.4974,223.6156 L337.0361,224.5585 L339.5665,225.5109 L342.0886,226.4727 L344.6022,227.4439 L347.1074,228.4244 L349.6039,229.4141 L352.0918,230.4129 L354.5709,231.4208 L357.0411,232.4377 L359.5025,233.4636 L361.9548,234.4982 L364.3981,235.5416 L366.8323,236.5937 L369.2572,237.6544 L371.6728,238.7236 L374.0791,239.8012 L376.4759,240.8872 L378.8633,241.9815 L381.2410,243.0839 L383.6091,244.1945 L385.9674,245.3130 L388.3160,246.4395 L390.6547,247.5739 L392.9834,248.7160 L395.3022,249.8657 L397.6109,251.0231 L399.9094,252.1880 L402.1978,253.3602 L404.4759,254.5398 L406.7436,255.7267 L409.0010,256.9206 L411.2480,258.1216 L413.4844,259.3296 L415.7102,260.5444 L417.9254,261.7660 L420.1300,262.9943 L422.3238,264.2292 L424.5067,265.4705 L426.6788,266.7183 L428.8400,267.9723 L430.9903,269.2326 L433.1295,270.4990 L435.2576,271.7714 L437.3746,273.0497 L439.4804,274.3338 L441.5750,275.6237 L443.6583,276.9192 L445.7303,278.2202 L447.7909,279.5266 L449.8400,280.8384 L451.8778,282.1553 L453.9039,283.4775 L455.9186,284.8046 L457.9216,286.1367 L459.9130,287.4735 L461.8927,288.8152 L463.8606,290.1614 L465.8168,291.5121 L467.7612,292.8673 L469.6938,294.2268 L471.6144,295.5904 L473.5232,296.9582 L475.4200,298.3300 L477.3048,299.7057 L479.1775,301.0852 L481.0383,302.4683 L482.8869,303.8550 L484.7234,305.2453 L486.5478,306.6388 L488.3600,308.0357 L490.1600,309.4357 L491.9478,310.8387 L493.7233,312.2447 L495.4865,313.6535 L497.2374,315.0651 L498.9760,316.4793 L500.7023,317.8959 L502.4161,319.3150 L504.1176,320.7364 L505.8067,322.1600 L507.4833,323.5856 L509.1475,325.0133 L510.7992,326.4428 L512.4384,327.8740 L514.0651,329.3069 L515.6794,330.7413 L517.2811,332.1772 L518.8702,333.6144 L520.4468,335.0527 L522.0109,336.4922 L523.5624,337.9327 L525.1013,339.3740 L526.6276,340.8162 L528.1414,342.2589 L529.6425,343.7023 L531.1311,345.1460 L532.6070,346.5901 L534.0704,348.0344 L535.5211,349.4789 L536.9593,350.9233 L538.3848,352.3676 L539.7978,353.8117 L541.1981,355.2555 L542.5858,356.6988 L543.9610,358.1416 L545.3235,359.5837 L546.6735,361.0250 L548.0109,362.4655 L549.3357,363.9050 L550.6480,365.3434 L551.9477,366.7805 L553.2349,368.2164 L554.5096,369.6508 L555.7718,371.0837 L557.0214,372.5149 L558.2586,373.9444 L559.4833,375.3721 L560.6956,376.7977 L561.8954,378.2213 L563.0828,379.6427 L564.2578,381.0618 L565.4205,382.4785 L566.5708,383.8926 L567.7087,385.3042 L568.8344,386.7130 L569.9478,388.1190 L571.0489,389.5220 L572.1378,390.9220 L573.2145,392.3189 L574.2790,393.7125 L575.3314,395.1027 L576.3716,396.4894 L577.3998,397.8726 L578.4159,399.2520 L579.4200,400.6277 L580.4121,401.9995 L581.3922,403.3673 L582.3604,404.7310 L583.3168,406.0904 L584.2613,407.4456 L585.1940,408.7963 L586.1149,410.1426 L587.0241,411.4842 L587.9216,412.8211 L588.8075,414.1531 L589.6817,415.4803 L590.5444,416.8024 L591.3956,418.1194 L592.2353,419.4311 L593.0636,420.7375 L593.8805,422.0386 L594.6861,423.3340 L595.4804,424.6239 L596.2635,425.9080 L597.0354,427.1863 L597.7961,428.4587 L598.5458,429.7251 L599.2845,430.9854 L600.0122,432.2394 L600.7290,433.4872 L601.4349,434.7285 L602.1300,435.9634 L602.8143,437.1917 L603.4880,438.4133 L604.1510,439.6281 L604.8035,440.8361 L605.4455,442.0371 L606.0770,443.2311 L606.6981,444.4179 L607.3089,445.5975 L607.9094,446.7697 L608.4997,447.9346 L609.0799,449.0920 L609.6501,450.2417 L610.2102,451.3838 L610.7604,452.5182 L611.3008,453.6447 L611.8313,454.7633 L612.3521,455.8738 L612.8633,456.9762 L613.3648,458.0705 L613.8569,459.1565 L614.3395,460.2341 L614.8128,461.3033 L615.2767,462.3640 L615.7315,463.4161 L616.1771,464.4595 L616.6136,465.4942 L617.0411,466.5200 L617.4597,467.5369 L617.8695,468.5448 L618.2706,469.5437 L618.6629,470.5334 L619.0467,471.5138 L619.4219,472.4850 L619.7887,473.4469 L620.1472,474.3992 L620.4974,475.3421 L620.8394,476.2754 L621.1733,477.1990 L621.4992,478.1129 L621.8171,479.0171 L622.1272,479.9113 L622.4296,480.7956 L622.7242,481.6699 L623.0113,482.5342 L623.2909,483.3883 L623.5631,484.2322 L623.8279,485.0658 L624.0855,485.8892 L624.3360,486.7021 L624.5795,487.5046 L624.8159,488.2966 L625.0456,489.0780 L625.2684,489.8487 L625.4846,490.6088 L625.6941,491.3582 L625.8972,492.0967 L626.0939,492.8244 L626.2843,493.5411 L626.4685,494.2469 L626.6465,494.9417 L626.8186,495.6254 L626.9847,496.2979 L627.1450,496.9593 L627.2996,497.6094 L627.4486,498.2483 L627.5920,498.8758 L627.7300,499.4920 L627.8627,500.0967 L627.9902,500.6899 L628.1125,501.2717 L628.2298,501.8419 L628.3422,502.4005 L628.4498,502.9474 L628.5526,503.4826 L628.6508,504.0062 L628.7445,504.5179 L628.8338,505.0179 L628.9188,505.5060 L628.9995,505.9822 L629.0762,506.4465 L629.1488,506.8988 L629.2176,507.3392 L629.2826,507.7675 L629.3439,508.1838 L629.4016,508.5880 L629.4558,508.9801 L629.5067,509.3600 L629.5543,509.7278 L629.5987,510.0833 L629.6401,510.4266 L629.6786,510.7577 L629.7142,511.0765 L629.7471,511.3830 L629.7774,511.6771 L629.8051,511.9589 L629.8305,512.2283 L629.8536,512.4854 L629.8744,512.7300 L629.8932,512.9622 L629.9100,513.1819 L629.9250,513.3892 L629.9382,513.5839 L629.9497,513.7662 L629.9597,513.9360 L629.9683,514.0933 L629.9756,514.2380 L629.9817,514.3701 L629.9866,514.4898 L629.9906,514.5968 L629.9937,514.6913 L629.9960,514.7732 L629.9977,514.8425 L629.9988,514.8992 L629.9995,514.9433 L629.9999,514.9748 L630.0000,514.9937 L630.0000,515.0000" fill="none" stroke="#1565c0" stroke-width="4" stroke-linecap="round" stroke-linejoin="round"/>
<circle cx="208.5712" cy="191.3505" r="7.5" fill="#1565c0" stroke="#ffffff" stroke-width="2"><title>theta 1: (0.18955997, 0.62240294)</title></circle>
<text x="208.57" y="168.35" font-size="27" fill="#1565c0" text-anchor="middle">θ<tspan baseline-shift="sub" font-size="19">1</tspan></text>
<circle cx="300.1326" cy="212.0579" r="7.5" fill="#1565c0" stroke="#ffffff" stroke-width="2"><title>theta 2: (0.36563968, 0.58258090)</title></circle>
<text x="300.13" y="188.06" font-size="27" fill="#1565c0" text-anchor="middle">θ<tspan baseline-shift="sub" font-size="19">2</tspan></text>
<circle cx="444.5981" cy="277.5077" r="7.5" fill="#1565c0" stroke="#ffffff" stroke-width="2"><title>theta 3: (0.64345785, 0.45671597)</title></circle>
<text x="424.60" y="253.51" font-size="27" fill="#1565c0" text-anchor="middle">θ<tspan baseline-shift="sub" font-size="19">3</tspan></text>
<path d="M558.91,399.10 L573.91,402.10" fill="none" stroke="#1565c0" stroke-width="1.5"/>
<circle cx="581.9107" cy="404.0959" r="7.5" fill="#1565c0" stroke="#ffffff" stroke-width="2"><title>theta 4: (0.90752049, 0.21327710)</title></circle>
<text x="543.91" y="395.10" font-size="27" fill="#1565c0" text-anchor="middle">θ<tspan baseline-shift="sub" font-size="19">4</tspan></text>
<path d="M597.31,479.67 L619.31,495.67" fill="none" stroke="#1565c0" stroke-width="1.5"/>
<circle cx="627.3147" cy="497.6735" r="7.5" fill="#1565c0" stroke="#ffffff" stroke-width="2"><title>theta 5: (0.99483592, 0.03332027)</title></circle>
<text x="582.31" y="475.67" font-size="27" fill="#1565c0" text-anchor="middle">θ<tspan baseline-shift="sub" font-size="19">5</tspan></text>
<circle cx="630" cy="515" r="7" fill="#243447" stroke="#ffffff" stroke-width="2"><title>True parameter, normalized coordinate (1, 0)</title></circle>
<text x="651.00" y="526.00" font-size="28" fill="#243447" text-anchor="start" >θ*</text>
<circle cx="113" cy="625" r="7" fill="#1565c0"/>
<text x="134.00" y="634.00" font-size="23" fill="#243447" text-anchor="start" >Five exact EM updates; θ₁ is the first update.</text>
<text x="110.00" y="666.00" font-size="22" fill="#526477" text-anchor="start" >Coordinates normalized by ‖θ*‖; equal axis scales.</text>
<a href="https://proceedings.mlr.press/v235/luo24c.html"><text x="110.00" y="696.00" font-size="21" fill="#1565c0" text-anchor="start" >Luo &amp; Hashemi · ICML 2024 · Props. 4.3–4.4</text></a>
</g>
</svg>
